<svg width="81" height="80" viewBox="0 0 81 80" fill="none" xmlns="http://www.w3.org/2000/svg">
<circle cx="40" cy="40" r="40" fill="url(#paint0_linear_107_117)"/>
<path d="M2.8 49V32.512H7.096V45.472H15.472V49H2.8ZM27.1466 49.288C25.3386 49.288 23.7866 48.976 22.4906 48.352C21.2106 47.712 20.2266 46.76 19.5386 45.496C18.8506 44.232 18.5066 42.648 18.5066 40.744C18.5066 38.84 18.8506 37.264 19.5386 36.016C20.2266 34.752 21.2106 33.808 22.4906 33.184C23.7866 32.544 25.3386 32.224 27.1466 32.224C28.9546 32.224 30.4986 32.544 31.7786 33.184C33.0746 33.808 34.0666 34.752 34.7546 36.016C35.4426 37.264 35.7866 38.84 35.7866 40.744C35.7866 42.648 35.4426 44.232 34.7546 45.496C34.0666 46.76 33.0746 47.712 31.7786 48.352C30.4986 48.976 28.9546 49.288 27.1466 49.288ZM27.1466 45.928C27.8346 45.928 28.4426 45.824 28.9706 45.616C29.4986 45.408 29.9386 45.104 30.2906 44.704C30.6586 44.304 30.9306 43.816 31.1066 43.24C31.2826 42.664 31.3706 42.016 31.3706 41.296V40.24C31.3706 39.504 31.2826 38.848 31.1066 38.272C30.9306 37.696 30.6586 37.208 30.2906 36.808C29.9386 36.408 29.4986 36.104 28.9706 35.896C28.4426 35.688 27.8346 35.584 27.1466 35.584C26.4426 35.584 25.8266 35.688 25.2986 35.896C24.7706 36.104 24.3306 36.408 23.9786 36.808C23.6266 37.208 23.3626 37.696 23.1866 38.272C23.0106 38.848 22.9226 39.504 22.9226 40.24V41.296C22.9226 42.016 23.0106 42.664 23.1866 43.24C23.3626 43.816 23.6266 44.304 23.9786 44.704C24.3306 45.104 24.7706 45.408 25.2986 45.616C25.8266 45.824 26.4426 45.928 27.1466 45.928ZM48.3683 49.288C45.7123 49.288 43.6883 48.584 42.2963 47.176C40.9203 45.768 40.2323 43.624 40.2323 40.744C40.2323 38.84 40.5683 37.264 41.2403 36.016C41.9283 34.752 42.9203 33.808 44.2163 33.184C45.5283 32.544 47.1043 32.224 48.9443 32.224C50.0483 32.224 51.0883 32.352 52.0643 32.608C53.0403 32.864 53.9043 33.248 54.6563 33.76C55.4083 34.256 55.9923 34.888 56.4083 35.656C56.8243 36.408 57.0323 37.296 57.0323 38.32H52.8083C52.8083 37.888 52.7123 37.504 52.5203 37.168C52.3283 36.816 52.0563 36.528 51.7043 36.304C51.3683 36.064 50.9763 35.888 50.5283 35.776C50.0803 35.648 49.6083 35.584 49.1123 35.584C48.3763 35.584 47.7203 35.68 47.1443 35.872C46.5843 36.064 46.1203 36.36 45.7523 36.76C45.3843 37.16 45.1043 37.648 44.9123 38.224C44.7363 38.8 44.6483 39.472 44.6483 40.24V41.296C44.6483 42.32 44.8083 43.176 45.1283 43.864C45.4483 44.552 45.9283 45.072 46.5683 45.424C47.2243 45.76 48.0243 45.928 48.9683 45.928C49.7043 45.928 50.3603 45.816 50.9363 45.592C51.5283 45.368 51.9923 45.048 52.3283 44.632C52.6803 44.2 52.8563 43.688 52.8563 43.096V42.976H48.4163V39.952H57.0323V49H54.5363L54.1283 47.272C53.6323 47.72 53.0963 48.096 52.5203 48.4C51.9603 48.704 51.3363 48.928 50.6483 49.072C49.9763 49.216 49.2163 49.288 48.3683 49.288ZM70.5466 49.288C68.7386 49.288 67.1866 48.976 65.8906 48.352C64.6106 47.712 63.6266 46.76 62.9386 45.496C62.2506 44.232 61.9066 42.648 61.9066 40.744C61.9066 38.84 62.2506 37.264 62.9386 36.016C63.6266 34.752 64.6106 33.808 65.8906 33.184C67.1866 32.544 68.7386 32.224 70.5466 32.224C72.3546 32.224 73.8986 32.544 75.1786 33.184C76.4746 33.808 77.4666 34.752 78.1546 36.016C78.8426 37.264 79.1866 38.84 79.1866 40.744C79.1866 42.648 78.8426 44.232 78.1546 45.496C77.4666 46.76 76.4746 47.712 75.1786 48.352C73.8986 48.976 72.3546 49.288 70.5466 49.288ZM70.5466 45.928C71.2346 45.928 71.8426 45.824 72.3706 45.616C72.8986 45.408 73.3386 45.104 73.6906 44.704C74.0586 44.304 74.3306 43.816 74.5066 43.24C74.6826 42.664 74.7706 42.016 74.7706 41.296V40.24C74.7706 39.504 74.6826 38.848 74.5066 38.272C74.3306 37.696 74.0586 37.208 73.6906 36.808C73.3386 36.408 72.8986 36.104 72.3706 35.896C71.8426 35.688 71.2346 35.584 70.5466 35.584C69.8426 35.584 69.2266 35.688 68.6986 35.896C68.1706 36.104 67.7306 36.408 67.3786 36.808C67.0266 37.208 66.7626 37.696 66.5866 38.272C66.4106 38.848 66.3226 39.504 66.3226 40.24V41.296C66.3226 42.016 66.4106 42.664 66.5866 43.24C66.7626 43.816 67.0266 44.304 67.3786 44.704C67.7306 45.104 68.1706 45.408 68.6986 45.616C69.2266 45.824 69.8426 45.928 70.5466 45.928Z" fill="#5B5B5B"/>
<defs>
<linearGradient id="paint0_linear_107_117" x1="40" y1="0" x2="40" y2="80" gradientUnits="userSpaceOnUse">
<stop stop-color="white"/>
<stop offset="1" stop-color="white"/>
</linearGradient>
</defs>
</svg>
